# xmcd CD database file
#
# Track frame offsets:
#	150
#	19947
#	36025
#	53890
#	74650
#	90737
#	113202
#	132750
#	155352
#	172875
#	193605
#	214672
#	238565
#
# Disc length: 3427 seconds
#
# Revision: 0
# Processed by: cddbd v1.5PL3 Copyright (c) Steve Scherf et al.
# Submitted via: CDex 1.51
#
DISCID=ae0d610d
DTITLE=Various Artist - LISTEN
DYEAR=1995
DGENRE=seiyu(J)
TTITLE0=明日へのFree Way
TTITLE1=HANDSOME
TTITLE2=冥王星よりも孤独
TTITLE3=二十一世紀はまだ早い
TTITLE4=太陽を連れて 〜Good Day Sunshine〜
TTITLE5=Turquoise Blue
TTITLE6=T”IDAL-WAVE!!
TTITLE7=My Dolphin Boy
TTITLE8=くせ
TTITLE9=週末の雨
TTITLE10=翡翠勾玉
TTITLE11=夢幻、夢幻
TTITLE12=誰より輝いて 〜New Version〜
EXTD=YEAR: 1995.11.22
EXTT0=
EXTT1=
EXTT2=
EXTT3=
EXTT4=
EXTT5=
EXTT6=
EXTT7=
EXTT8=
EXTT9=
EXTT10=
EXTT11=
EXTT12=
PLAYORDER=
